<svg 
 xmlns="http://www.w3.org/2000/svg"
 xmlns:xlink="http://www.w3.org/1999/xlink"
 viewBox="0 0 32 32">
<defs>
<linearGradient id="PSgrad_0" x1="0%" x2="0%" y1="0%" y2="100%">
  <stop offset="0%" stop-color="rgb(255,77,181)" stop-opacity="1" />
  <stop offset="100%" stop-color="rgb(255,26,133)" stop-opacity="1" />
</linearGradient>
</defs>
<path fill-rule="evenodd" fill-opacity="0.149" fill="rgb(255, 255, 255)"
 d="M30.107,20.411 C30.107,20.411 0.000,28.000 0.000,28.000 C0.000,28.000 20.218,18.912 20.218,18.912 C21.020,18.538 21.050,17.873 20.286,17.426 C20.286,17.426 9.513,6.304 9.513,6.304 C8.749,5.858 8.810,5.271 9.650,4.995 C9.650,4.995 27.388,0.000 27.388,0.000 C27.388,0.000 16.775,6.357 16.775,6.357 C15.980,6.746 15.982,7.373 16.779,7.757 C16.779,7.757 30.203,19.276 30.203,19.276 C31.000,19.661 30.957,20.169 30.107,20.411 Z"/>
<path fill="url(#PSgrad_0)"
 d="M30.107,20.411 C30.107,20.411 0.000,28.000 0.000,28.000 C0.000,28.000 20.218,18.912 20.218,18.912 C21.020,18.538 21.050,17.873 20.286,17.426 C20.286,17.426 9.513,6.304 9.513,6.304 C8.749,5.858 8.810,5.271 9.650,4.995 C9.650,4.995 27.388,0.000 27.388,0.000 C27.388,0.000 16.775,6.357 16.775,6.357 C15.980,6.746 15.982,7.373 16.779,7.757 C16.779,7.757 30.203,19.276 30.203,19.276 C31.000,19.661 30.957,20.169 30.107,20.411 Z"/>
</svg>








